<!DOCTYPE svg PUBLIC "-//W3C//DTD SVG 1.1//EN" "http://www.w3.org/Graphics/SVG/1.1/DTD/svg11.dtd">

<!-- Uploaded to: SVG Repo, www.svgrepo.com, Transformed by: SVG Repo Mixer Tools -->
<svg width="800px" height="800px" viewBox="0 0 24 24" fill="none" xmlns="http://www.w3.org/2000/svg">

<g id="SVGRepo_bgCarrier" stroke-width="0"/>

<g id="SVGRepo_tracerCarrier" stroke-linecap="round" stroke-linejoin="round"/>

<g id="SVGRepo_iconCarrier"> <path fill-rule="evenodd" clip-rule="evenodd" d="M5 5H9.5V9.5H5V5ZM6.5 6.5V8H8V6.5H6.5Z" fill="#ffffff"/> <path fill-rule="evenodd" clip-rule="evenodd" d="M14.4999 5H18.9999V9.5H14.4999V5ZM15.9999 6.5V8H17.4999V6.5H15.9999Z" fill="#ffffff"/> <path fill-rule="evenodd" clip-rule="evenodd" d="M5 14.5H9.5V19H5V14.5ZM6.5 16V17.5H8V16H6.5Z" fill="#ffffff"/> <rect x="5" y="11.25" width="1.5" height="1.5" fill="#ffffff"/> <rect x="8" y="11.25" width="1.5" height="1.5" fill="#ffffff"/> <rect x="11.1666" y="11.25" width="1.5" height="1.5" fill="#ffffff"/> <rect x="11.1666" y="14.375" width="1.5" height="1.5" fill="#ffffff"/> <rect x="11.1666" y="17.5" width="1.5" height="1.5" fill="#ffffff"/> <rect x="11.1666" y="8.125" width="1.5" height="1.5" fill="#ffffff"/> <rect x="11.1666" y="5" width="1.5" height="1.5" fill="#ffffff"/> <rect x="14.3333" y="11.25" width="1.5" height="1.5" fill="#ffffff"/> <rect x="17.4999" y="11.25" width="1.5" height="1.5" fill="#ffffff"/> <rect x="14.3333" y="14.375" width="1.5" height="1.5" fill="#ffffff"/> <rect x="17.4999" y="14.375" width="1.5" height="1.5" fill="#ffffff"/> <rect x="14.3333" y="17.5" width="1.5" height="1.5" fill="#ffffff"/> <rect x="17.4999" y="17.5" width="1.5" height="1.5" fill="#ffffff"/> </g>

</svg>